<svg version="1.1" id="Layer_1" xmlns="http://www.w3.org/2000/svg" xmlns:xlink="http://www.w3.org/1999/xlink" x="0px" y="0px"
	 width="100%" viewBox="0 0 589 305" enable-background="new 0 0 589 305" xml:space="preserve">
<path fill="#000000" opacity="1.000000" stroke="none" 
	d="
M590.000000,297.000000 
	C590.000000,299.999268 590.000000,302.998566 590.000000,305.998352 
	C393.714325,305.998901 197.428665,305.998901 1.071501,305.998901 
	C1.071501,204.405350 1.071501,102.810646 1.071501,1.107969 
	C197.214340,1.107969 393.428772,1.107969 590.000000,1.107969 
	C590.000000,98.357124 590.000000,195.714676 589.726501,293.854858 
	C588.570007,293.717072 587.535522,292.899628 586.828674,291.859528 
	C582.398743,285.340668 578.154236,278.693634 573.640503,272.234283 
	C557.318909,248.877243 540.932190,225.565643 524.534363,202.261978 
	C517.125305,191.732590 509.544464,181.323196 502.202271,170.747772 
	C494.928864,160.271378 487.857788,149.654495 480.919617,139.425980 
	C514.420349,95.281624 547.662903,51.477486 581.212219,7.269036 
	C578.975708,6.911730 577.063293,6.327052 575.156494,6.344799 
	C556.374329,6.519598 537.592163,6.747723 518.813293,7.126491 
	C517.250000,7.158022 515.154114,7.967410 514.245728,9.142265 
	C503.177368,23.456697 492.228180,37.864525 481.363770,52.334980 
	C470.843170,66.347466 460.486206,80.482681 450.000031,94.521164 
	C444.175049,102.319405 438.232941,110.030174 431.994812,118.239449 
	C431.994812,111.820503 431.888916,105.910568 432.018250,100.005783 
	C432.245209,89.645508 432.858398,79.288330 432.855957,68.929955 
	C432.853699,59.361084 432.121826,49.794651 431.957977,40.222923 
	C431.786896,30.229149 431.940979,20.230131 431.875458,10.233912 
	C431.864288,8.526677 431.464661,6.821988 431.217651,4.908394 
	C425.650635,7.677584 384.440094,7.969367 380.806641,4.927622 
	C380.806641,102.592636 380.806641,199.654800 380.806641,296.919006 
	C396.827850,296.919006 412.970764,296.857452 429.112427,296.970673 
	C432.360840,296.993439 433.047668,295.537323 432.946564,292.704498 
	C432.745697,287.075012 432.688538,281.437866 432.695007,275.804077 
	C432.703735,268.215790 432.861786,260.627777 432.893433,253.039383 
	C432.919678,246.748764 432.843140,240.457764 432.835724,234.166916 
	C432.830048,229.343445 432.884064,224.519882 432.870239,219.696472 
	C432.852753,213.593231 432.775635,207.490158 432.756897,201.386902 
	C432.736450,194.738037 432.753632,188.089050 432.753967,181.440125 
	C432.754272,175.395691 432.754028,169.351257 432.754028,163.373581 
	C442.572815,177.383423 452.311127,191.633759 462.436188,205.603836 
	C469.514648,215.370316 475.214935,226.066101 483.081635,235.308121 
	C487.343750,240.315353 490.986816,245.859802 494.784027,251.250076 
	C499.979614,258.625458 504.987518,266.133301 510.203888,273.493652 
	C514.967590,280.215302 519.478943,287.112061 524.216553,293.852051 
	C526.066711,296.484131 527.743469,296.976440 530.529968,296.967407 
	C550.353088,296.902985 570.176575,296.972900 590.000000,297.000000 
M96.488243,296.837280 
	C111.814095,296.865051 127.140602,296.960632 142.464722,296.810699 
	C143.920242,296.796448 146.597626,295.262085 146.609558,294.404236 
	C146.693619,288.367218 145.986374,282.322998 145.975876,276.280273 
	C145.902054,233.836105 145.934479,191.391754 145.935318,148.947464 
	C145.935883,120.458572 145.940323,91.969688 145.943008,63.480797 
	C145.943176,61.705875 145.943039,59.930958 145.943039,57.955269 
	C147.799271,57.955269 149.103714,57.955650 150.408157,57.955208 
	C177.897430,57.945889 205.386932,57.877052 232.875702,57.990166 
	C237.074539,58.007442 238.740845,56.894810 237.101135,52.643154 
	C236.817383,51.907387 236.914917,51.006752 236.914368,50.182220 
	C236.904861,35.668739 236.907501,21.155258 236.907501,6.418739 
	C159.882843,6.418739 82.699646,6.418739 5.445017,6.418739 
	C5.445017,24.276531 5.445017,40.997406 5.445017,57.949364 
	C33.395603,57.949364 61.036648,57.948574 88.677696,57.949921 
	C95.700699,57.950264 96.045692,58.294655 96.047066,65.506409 
	C96.060913,137.978104 96.087402,210.449829 96.027756,282.921478 
	C96.024971,286.297913 95.127586,289.665710 94.891029,293.054596 
	C94.818481,294.093842 95.560959,295.190033 96.488243,296.837280 
M323.500183,7.087378 
	C316.414642,7.087378 309.329102,7.087378 302.122620,7.087378 
	C302.122620,11.444403 302.123322,15.101531 302.122559,18.758659 
	C302.108917,84.580437 302.173431,150.402481 301.938904,216.223480 
	C301.919250,221.739685 300.944122,227.751083 298.604279,232.672546 
	C289.385101,252.063522 271.602264,258.302338 251.819016,252.217789 
	C232.068054,246.143143 225.637329,228.997284 226.050308,210.266449 
	C226.115601,207.304993 225.667267,206.007416 222.792694,206.066086 
	C207.896729,206.370148 193.001678,206.719208 178.106567,207.063614 
	C176.833160,207.093063 175.561615,207.203262 173.272598,207.334030 
	C174.249344,216.462555 174.699081,225.295609 176.218185,233.940781 
	C179.867416,254.708542 190.282547,271.570068 207.067657,284.380157 
	C216.325226,291.445374 226.318451,297.142761 237.768677,299.923492 
	C249.689102,302.818451 261.539490,304.820190 274.024048,303.105438 
	C284.055664,301.727631 293.754395,299.587616 302.839447,295.381042 
	C317.628876,288.533203 329.966034,278.458313 339.334015,265.015717 
	C347.750366,252.938583 353.684998,239.537903 353.762970,224.826019 
	C354.138428,154.006958 353.921051,83.184761 353.913300,12.363680 
	C353.913177,11.030662 354.255554,9.555165 353.791016,8.408237 
	C353.396423,7.433990 352.053375,6.163815 351.151367,6.180504 
	C342.265045,6.344928 333.383179,6.750942 323.500183,7.087378 
z"/>
<path fill="#F8F8F8" opacity="1.000000" stroke="none" 
	d="
M590.000000,296.625000 
	C570.176575,296.972900 550.353088,296.902985 530.529968,296.967407 
	C527.743469,296.976440 526.066711,296.484131 524.216553,293.852051 
	C519.478943,287.112061 514.967590,280.215302 510.203888,273.493652 
	C504.987518,266.133301 499.979614,258.625458 494.784027,251.250076 
	C490.986816,245.859802 487.343750,240.315353 483.081635,235.308121 
	C475.214935,226.066101 469.514648,215.370316 462.436188,205.603836 
	C452.311127,191.633759 442.572815,177.383423 432.754028,163.373581 
	C432.754028,169.351257 432.754272,175.395691 432.753967,181.440125 
	C432.753632,188.089050 432.736450,194.738037 432.756897,201.386902 
	C432.775635,207.490158 432.852753,213.593231 432.870239,219.696472 
	C432.884064,224.519882 432.830048,229.343445 432.835724,234.166916 
	C432.843140,240.457764 432.919678,246.748764 432.893433,253.039383 
	C432.861786,260.627777 432.703735,268.215790 432.695007,275.804077 
	C432.688538,281.437866 432.745697,287.075012 432.946564,292.704498 
	C433.047668,295.537323 432.360840,296.993439 429.112427,296.970673 
	C412.970764,296.857452 396.827850,296.919006 380.806641,296.919006 
	C380.806641,199.654800 380.806641,102.592636 380.806641,4.927622 
	C384.440094,7.969367 425.650635,7.677584 431.217651,4.908394 
	C431.464661,6.821988 431.864288,8.526677 431.875458,10.233912 
	C431.940979,20.230131 431.786896,30.229149 431.957977,40.222923 
	C432.121826,49.794651 432.853699,59.361084 432.855957,68.929955 
	C432.858398,79.288330 432.245209,89.645508 432.018250,100.005783 
	C431.888916,105.910568 431.994812,111.820503 431.994812,118.239449 
	C438.232941,110.030174 444.175049,102.319405 450.000031,94.521164 
	C460.486206,80.482681 470.843170,66.347466 481.363770,52.334980 
	C492.228180,37.864525 503.177368,23.456697 514.245728,9.142265 
	C515.154114,7.967410 517.250000,7.158022 518.813293,7.126491 
	C537.592163,6.747723 556.374329,6.519598 575.156494,6.344799 
	C577.063293,6.327052 578.975708,6.911730 581.212219,7.269036 
	C547.662903,51.477486 514.420349,95.281624 480.919617,139.425980 
	C487.857788,149.654495 494.928864,160.271378 502.202271,170.747772 
	C509.544464,181.323196 517.125305,191.732590 524.534363,202.261978 
	C540.932190,225.565643 557.318909,248.877243 573.640503,272.234283 
	C578.154236,278.693634 582.398743,285.340668 586.828674,291.859528 
	C587.535522,292.899628 588.570007,293.717072 589.726501,294.318726 
	C590.000000,294.750000 590.000000,295.500000 590.000000,296.625000 
z"/>
<path fill="#F8F9F8" opacity="1.000000" stroke="none" 
	d="
M96.209229,296.548706 
	C95.560959,295.190033 94.818481,294.093842 94.891029,293.054596 
	C95.127586,289.665710 96.024971,286.297913 96.027756,282.921478 
	C96.087402,210.449829 96.060913,137.978104 96.047066,65.506409 
	C96.045692,58.294655 95.700699,57.950264 88.677696,57.949921 
	C61.036648,57.948574 33.395603,57.949364 5.445017,57.949364 
	C5.445017,40.997406 5.445017,24.276531 5.445017,6.418739 
	C82.699646,6.418739 159.882843,6.418739 236.907501,6.418739 
	C236.907501,21.155258 236.904861,35.668739 236.914368,50.182220 
	C236.914917,51.006752 236.817383,51.907387 237.101135,52.643154 
	C238.740845,56.894810 237.074539,58.007442 232.875702,57.990166 
	C205.386932,57.877052 177.897430,57.945889 150.408157,57.955208 
	C149.103714,57.955650 147.799271,57.955269 145.943039,57.955269 
	C145.943039,59.930958 145.943176,61.705875 145.943008,63.480797 
	C145.940323,91.969688 145.935883,120.458572 145.935318,148.947464 
	C145.934479,191.391754 145.902054,233.836105 145.975876,276.280273 
	C145.986374,282.322998 146.693619,288.367218 146.609558,294.404236 
	C146.597626,295.262085 143.920242,296.796448 142.464722,296.810699 
	C127.140602,296.960632 111.814095,296.865051 96.209229,296.548706 
z"/>
<path fill="#F8F8F8" opacity="1.000000" stroke="none" 
	d="
M324.000122,7.087910 
	C333.383179,6.750942 342.265045,6.344928 351.151367,6.180504 
	C352.053375,6.163815 353.396423,7.433990 353.791016,8.408237 
	C354.255554,9.555165 353.913177,11.030662 353.913300,12.363680 
	C353.921051,83.184761 354.138428,154.006958 353.762970,224.826019 
	C353.684998,239.537903 347.750366,252.938583 339.334015,265.015717 
	C329.966034,278.458313 317.628876,288.533203 302.839447,295.381042 
	C293.754395,299.587616 284.055664,301.727631 274.024048,303.105438 
	C261.539490,304.820190 249.689102,302.818451 237.768677,299.923492 
	C226.318451,297.142761 216.325226,291.445374 207.067657,284.380157 
	C190.282547,271.570068 179.867416,254.708542 176.218185,233.940781 
	C174.699081,225.295609 174.249344,216.462555 173.272598,207.334030 
	C175.561615,207.203262 176.833160,207.093063 178.106567,207.063614 
	C193.001678,206.719208 207.896729,206.370148 222.792694,206.066086 
	C225.667267,206.007416 226.115601,207.304993 226.050308,210.266449 
	C225.637329,228.997284 232.068054,246.143143 251.819016,252.217789 
	C271.602264,258.302338 289.385101,252.063522 298.604279,232.672546 
	C300.944122,227.751083 301.919250,221.739685 301.938904,216.223480 
	C302.173431,150.402481 302.108917,84.580437 302.122559,18.758659 
	C302.123322,15.101531 302.122620,11.444403 302.122620,7.087378 
	C309.329102,7.087378 316.414642,7.087378 324.000122,7.087910 
z"/>
</svg>